<?xml version="1.0" standalone="no"?>
<!DOCTYPE svg PUBLIC "-//W3C//DTD SVG 20010904//EN"
 "http://www.w3.org/TR/2001/REC-SVG-20010904/DTD/svg10.dtd">
<svg version="1.0" xmlns="http://www.w3.org/2000/svg"
 width="512.000000pt" height="512.000000pt" viewBox="0 0 512.000000 512.000000"
 preserveAspectRatio="xMidYMid meet">
<metadata>
Created by potrace 1.14, written by Peter Selinger 2001-2017
</metadata>
<g transform="translate(0.000000,512.000000) scale(0.100000,-0.100000)"
fill="#000000" stroke="none">
<path d="M435 4868 c-48 -17 -93 -56 -118 -101 l-22 -42 0 -2085 c0 -1147 3
-2097 8 -2112 11 -42 63 -95 110 -113 38 -14 189 -15 1522 -13 l1480 3 53 29
c28 16 64 44 78 63 53 70 55 80 52 394 -3 265 -5 293 -20 303 -13 8 -23 8 -35
0 -16 -10 -18 -39 -23 -300 -5 -266 -7 -292 -25 -323 -27 -46 -64 -72 -116
-82 -66 -12 -2886 -11 -2931 1 -74 21 -68 -177 -68 2141 l0 2087 26 31 c14 17
42 35 62 41 57 15 2926 13 2972 -3 19 -7 44 -27 57 -46 l23 -34 0 -753 0 -753
-295 -445 -295 -446 -732 -2 -733 -3 -3 -23 c-8 -54 -36 -52 714 -52 382 0
694 -3 694 -8 0 -4 -20 -102 -45 -217 -25 -116 -48 -222 -51 -238 l-6 -27
-643 0 c-694 0 -671 2 -663 -52 l3 -23 825 -3 c737 -2 826 -1 836 13 16 22 6
54 -20 60 -11 3 -54 6 -94 7 l-73 3 157 110 157 109 133 201 134 200 0 -212
c0 -179 2 -214 16 -227 18 -19 20 -19 45 -6 18 10 19 24 19 288 l0 277 441
665 c242 366 444 671 449 679 7 13 12 12 34 -2 14 -10 26 -26 26 -37 0 -10
-115 -193 -256 -405 -216 -325 -265 -392 -310 -428 -58 -45 -73 -70 -54 -92
20 -25 49 -17 107 28 48 36 92 97 324 445 241 360 269 407 269 443 0 50 -20
90 -54 109 -14 7 -26 17 -26 22 0 5 17 35 39 66 73 109 87 154 70 232 -35 161
-231 234 -365 134 -17 -13 -170 -233 -360 -518 l-329 -497 -5 708 -5 708 -23
38 c-13 20 -45 50 -70 65 l-47 27 -1495 2 c-1028 1 -1504 -2 -1525 -9z m4065
-576 c19 -9 45 -33 58 -52 38 -55 28 -117 -33 -207 -26 -40 -50 -73 -52 -73
-2 0 -57 36 -123 80 l-120 80 37 58 c47 75 72 102 108 118 41 18 84 17 125 -4z
m-486 -1025 c-13 -22 -787 -1192 -794 -1200 -8 -9 -240 141 -240 155 0 9 82
134 534 816 l266 402 121 -80 c78 -53 117 -85 113 -93z"/>
<path d="M1163 4285 l-48 -55 -159 0 -160 0 -44 -47 c-38 -41 -43 -52 -37 -78
4 -16 10 -87 14 -157 6 -123 8 -128 36 -158 l29 -30 179 0 179 0 29 29 29 29
0 172 0 171 45 56 c50 61 52 69 29 101 -28 40 -66 29 -121 -33z m-162 -184
c-43 -51 -70 -76 -74 -70 -2 2 -27 30 -57 62 l-53 57 112 0 113 0 -41 -49z
m125 -248 c-4 -10 -41 -13 -156 -13 l-150 0 0 66 0 67 50 -47 c27 -25 56 -46
64 -46 21 0 62 37 131 118 l60 71 3 -101 c1 -56 0 -108 -2 -115z"/>
<path d="M1478 4029 c-24 -14 -23 -56 1 -69 14 -7 282 -9 827 -8 l807 3 14 22
c13 19 12 24 -6 42 -21 21 -25 21 -823 21 -527 -1 -809 -4 -820 -11z"/>
<path d="M1473 3453 c-16 -6 -17 -45 -1 -61 9 -9 205 -12 823 -12 445 0 815 4
821 8 17 11 22 35 12 55 -8 16 -57 17 -826 16 -449 0 -823 -3 -829 -6z"/>
<path d="M1217 3189 c-10 -6 -36 -30 -59 -55 l-41 -44 -132 0 c-167 0 -187 -4
-230 -49 -41 -41 -52 -73 -37 -104 6 -12 12 -77 14 -145 l3 -124 33 -29 32
-29 176 0 176 0 29 29 29 29 0 173 0 172 45 55 c57 68 58 94 8 121 -26 13 -23
13 -46 0z m-228 -249 c-29 -33 -53 -60 -53 -60 -1 0 -28 27 -61 60 l-59 60
112 0 113 0 -52 -60z m137 -237 c-4 -10 -41 -13 -156 -13 l-150 0 0 67 0 67
43 -41 c70 -69 88 -64 184 48 l78 90 3 -102 c1 -57 0 -109 -2 -116z"/>
<path d="M1470 2876 c-6 -8 -10 -25 -8 -38 l3 -23 827 -3 c796 -2 828 -1 837
16 7 14 6 25 -5 40 l-15 22 -813 0 c-697 0 -815 -2 -826 -14z"/>
<path d="M784 1921 c-45 -28 -54 -65 -54 -225 0 -114 3 -148 18 -176 27 -54
48 -60 225 -60 238 0 236 -2 237 237 l0 173 -29 32 -29 33 -169 3 c-152 2
-171 1 -199 -17z m334 -69 c9 -7 12 -45 10 -158 l-3 -149 -150 0 -150 0 -3
145 c-1 79 0 150 2 157 4 10 39 13 143 13 76 0 144 -4 151 -8z"/>
<path d="M3536 1764 c-14 -14 -16 -44 -14 -216 3 -179 5 -202 21 -212 12 -8
22 -8 35 0 15 10 17 34 20 215 2 183 1 205 -15 216 -22 17 -28 16 -47 -3z"/>
<path d="M1478 1159 c-24 -13 -23 -56 1 -69 13 -7 288 -10 820 -10 791 0 801
0 821 20 22 22 15 52 -16 64 -28 11 -1607 6 -1626 -5z"/>
</g>
</svg>
